<?xml version="1.0" encoding="UTF-8" standalone="no"?>
<!-- Created with Inkscape (http://www.inkscape.org/) -->

<svg
   xmlns:dc="http://purl.org/dc/elements/1.1/"
   xmlns:cc="http://creativecommons.org/ns#"
   xmlns:rdf="http://www.w3.org/1999/02/22-rdf-syntax-ns#"
   xmlns:svg="http://www.w3.org/2000/svg"
   xmlns="http://www.w3.org/2000/svg"
   xmlns:sodipodi="http://sodipodi.sourceforge.net/DTD/sodipodi-0.dtd"
   xmlns:inkscape="http://www.inkscape.org/namespaces/inkscape"
   width="54"
   height="54"
   viewBox="0 0 54.000002 53.999999"
   id="svg2"
   version="1.1"
   inkscape:version="0.91 r13725"
   sodipodi:docname="logo.svg">
  <sodipodi:namedview
     id="base"
     pagecolor="#e8f5e9"
     bordercolor="#666666"
     borderopacity="1.0"
     inkscape:pageopacity="0"
     inkscape:pageshadow="2"
     inkscape:zoom="6.8197325"
     inkscape:cx="-3.217831"
     inkscape:cy="9.2564047"
     inkscape:document-units="px"
     inkscape:current-layer="layer1"
     showgrid="false"
     inkscape:window-width="1536"
     inkscape:window-height="801"
     inkscape:window-x="-8"
     inkscape:window-y="-8"
     inkscape:window-maximized="1"
     fit-margin-top="0"
     fit-margin-left="0"
     fit-margin-right="0"
     fit-margin-bottom="0"
     units="px" />
  <defs
     id="defs4" />
  <metadata
     id="metadata7">
    <rdf:RDF>
      <cc:Work
         rdf:about="">
        <dc:format>image/svg+xml</dc:format>
        <dc:type
           rdf:resource="http://purl.org/dc/dcmitype/StillImage" />
        <dc:title />
      </cc:Work>
    </rdf:RDF>
  </metadata>
  <g
     inkscape:label="Vrstva 1"
     inkscape:groupmode="layer"
     id="layer1"
     transform="translate(-151.79356,-592.73905)">
    <rect
       ry="3.1496866"
       rx="3.8068278"
       y="592.73907"
       x="151.79356"
       height="54.000004"
       width="54.000004"
       id="rect4282"
       style="fill:#808080;fill-opacity:1;fill-rule:nonzero;stroke:none;stroke-width:1;stroke-linecap:butt;stroke-linejoin:miter;stroke-miterlimit:4;stroke-dasharray:none;stroke-opacity:1" />
    <g
       id="g3369"
       transform="matrix(0.20201141,0,0,0.20201141,181.20825,596.02017)"
       style="fill:#ffffff;fill-opacity:1;stroke:none;stroke-width:1;stroke-linecap:butt;stroke-linejoin:miter;stroke-miterlimit:4;stroke-dasharray:none;stroke-opacity:1">
      <g
         id="g4257"
         transform="matrix(0.43393892,0,0,0.43393892,-109.77,1.8644998)"
         style="fill:#ffffff;fill-opacity:1;stroke:none;stroke-width:2.30447173;stroke-linecap:butt;stroke-linejoin:miter;stroke-miterlimit:4;stroke-dasharray:none;stroke-opacity:1">
        <g
           display="none"
           id="Robot"
           style="display:none;fill:#ffffff;fill-opacity:1;stroke:none;stroke-width:2.30447173;stroke-linecap:butt;stroke-linejoin:miter;stroke-miterlimit:4;stroke-dasharray:none;stroke-opacity:1">
          <path
             id="path4235"
             d="m 11.807,208.304 c 0,-17.198 13.95,-31.149 31.151,-31.149 17.204,0 31.153,13.951 31.153,31.149 l 0,130.466 c 0,17.209 -13.95,31.146 -31.153,31.146 -17.202,0 -31.151,-13.937 -31.151,-31.146 l 0,-130.466 z m 427.219,0 c 0,-17.201 -13.943,-31.149 -31.149,-31.149 -17.201,0 -31.151,13.948 -31.151,31.149 l 0,130.466 c 0,17.209 13.95,31.146 31.151,31.146 17.206,0 31.149,-13.937 31.149,-31.146 l 0,-130.466 z M 204.389,418.448 m 0,0 m 0,0 42.056,0 0,69.011 c 0,17.211 13.946,31.153 31.151,31.153 17.196,0 31.151,-13.942 31.151,-31.153 l 0,-69.011 23.854,0 c 17.207,0 32.102,-14.879 32.102,-33.252 l 0,-202.156 -278.516,0 0,202.156 c 0,18.373 14.883,33.252 34.409,33.252 0,0 21.497,0 21.496,0 l 0,69.011 c 0,17.211 13.948,31.153 31.149,31.153 17.204,0 31.149,-13.942 31.149,-31.153 l 0,-69.011 M 365.698,172.221 c 0,-48.111 -28.854,-90.167 -71.576,-112.23 -0.001,0 21.721,-39.631 21.721,-39.631 1.149,-2.097 0.381,-4.727 -1.714,-5.878 -2.096,-1.15 -4.728,-0.382 -5.879,1.715 l -21.95,40.048 0.003,0 c -18.425,-8.159 -39.089,-12.731 -60.92,-12.731 -21.83,0 -42.495,4.572 -60.92,12.731 l 0.005,0 -21.951,-40.048 c -1.151,-2.098 -3.784,-2.866 -5.878,-1.715 -2.096,1.151 -2.863,3.781 -1.715,5.878 0,0 21.722,39.632 21.721,39.631 -42.722,22.063 -71.576,64.119 -71.576,112.23 l 280.641,0"
             display="inline"
             inkscape:connector-curvature="0"
             style="display:inline;fill:#ffffff;fill-opacity:1;stroke:none;stroke-width:2.30447173;stroke-linecap:butt;stroke-linejoin:miter;stroke-miterlimit:4;stroke-dasharray:none;stroke-opacity:1" />
        </g>
        <g
           display="none"
           id="Eyes"
           style="display:none;fill:#ffffff;fill-opacity:1;stroke:none;stroke-width:2.30447173;stroke-linecap:butt;stroke-linejoin:miter;stroke-miterlimit:4;stroke-dasharray:none;stroke-opacity:1">
          <path
             id="path4238"
             d="m 173.296,109.601 c 0,6.496 -5.27,11.755 -11.754,11.755 -6.493,0 -11.756,-5.259 -11.756,-11.755 0,-6.489 5.263,-11.754 11.756,-11.754 6.484,0 11.754,5.264 11.754,11.754 m 104.239,0 c 0,6.496 5.266,11.755 11.759,11.755 6.483,0 11.753,-5.259 11.753,-11.755 0,-6.489 -5.27,-11.754 -11.753,-11.754 -6.494,0 -11.759,5.264 -11.759,11.754"
             display="inline"
             inkscape:connector-curvature="0"
             style="display:inline;fill:#ffffff;fill-opacity:1;stroke:none;stroke-width:2.30447173;stroke-linecap:butt;stroke-linejoin:miter;stroke-miterlimit:4;stroke-dasharray:none;stroke-opacity:1" />
        </g>
        <g
           id="FINAL_ROBOT"
           style="fill:#ffffff;fill-opacity:1;stroke:none;stroke-width:2.30447173;stroke-linecap:butt;stroke-linejoin:miter;stroke-miterlimit:4;stroke-dasharray:none;stroke-opacity:1">
          <g
             id="g4241"
             style="fill:#ffffff;fill-opacity:1;stroke:none;stroke-width:2.30447173;stroke-linecap:butt;stroke-linejoin:miter;stroke-miterlimit:4;stroke-dasharray:none;stroke-opacity:1">
            <path
               id="path4243"
               d="m 42.958,177.155 c -17.202,0 -31.151,13.951 -31.151,31.149 l 0,130.466 c 0,17.209 13.95,31.146 31.151,31.146 17.204,0 31.153,-13.937 31.153,-31.146 l 0,-130.466 c 0,-17.198 -13.949,-31.149 -31.153,-31.149 z"
               inkscape:connector-curvature="0"
               style="fill:#ffffff;fill-opacity:1;stroke:none;stroke-width:2.30447173;stroke-linecap:butt;stroke-linejoin:miter;stroke-miterlimit:4;stroke-dasharray:none;stroke-opacity:1" />
            <path
               id="path4245"
               d="m 407.876,177.155 c -17.201,0 -31.151,13.948 -31.151,31.149 l 0,130.466 c 0,17.209 13.95,31.146 31.151,31.146 17.206,0 31.149,-13.937 31.149,-31.146 l 0,-130.466 c 0.001,-17.2 -13.942,-31.149 -31.149,-31.149 z"
               inkscape:connector-curvature="0"
               style="fill:#ffffff;fill-opacity:1;stroke:none;stroke-width:2.30447173;stroke-linecap:butt;stroke-linejoin:miter;stroke-miterlimit:4;stroke-dasharray:none;stroke-opacity:1" />
            <path
               id="path4247"
               d="m 86.187,385.196 c 0,18.373 14.883,33.252 34.409,33.252 0,0 21.497,0 21.496,0 l 0,69.011 c 0,17.211 13.948,31.153 31.149,31.153 17.204,0 31.149,-13.942 31.149,-31.153 l 0,-69.011 42.056,0 0,69.011 c 0,17.211 13.946,31.153 31.151,31.153 17.196,0 31.151,-13.942 31.151,-31.153 l 0,-69.011 23.854,0 c 17.207,0 32.102,-14.879 32.102,-33.252 l 0,-202.156 -278.517,0 0,202.156 z"
               inkscape:connector-curvature="0"
               style="fill:#ffffff;fill-opacity:1;stroke:none;stroke-width:2.30447173;stroke-linecap:butt;stroke-linejoin:miter;stroke-miterlimit:4;stroke-dasharray:none;stroke-opacity:1" />
            <path
               id="path4249"
               d="m 294.122,59.991 c -0.001,0 21.721,-39.631 21.721,-39.631 1.149,-2.097 0.381,-4.727 -1.714,-5.878 -2.096,-1.15 -4.728,-0.382 -5.879,1.715 L 286.3,56.244 c -18.425,-8.159 -39.088,-12.73 -60.918,-12.73 -21.828,0 -42.492,4.572 -60.917,12.729 l -21.95,-40.046 c -1.151,-2.098 -3.784,-2.866 -5.878,-1.715 -2.096,1.151 -2.863,3.781 -1.715,5.878 0,0 21.722,39.632 21.721,39.631 -42.722,22.063 -71.576,64.119 -71.576,112.23 l 280.63,0 C 365.698,124.11 336.843,82.054 294.122,59.991 Z m -132.607,61.364 c -6.493,0 -11.756,-5.259 -11.756,-11.755 0,-6.489 5.263,-11.754 11.756,-11.754 6.484,0 11.754,5.265 11.754,11.754 0,6.497 -5.27,11.755 -11.754,11.755 z m 127.751,0 c -6.493,0 -11.759,-5.259 -11.759,-11.755 0,-6.489 5.266,-11.754 11.759,-11.754 6.483,0 11.753,5.265 11.753,11.754 0,6.497 -5.269,11.755 -11.753,11.755 z"
               inkscape:connector-curvature="0"
               style="fill:#ffffff;fill-opacity:1;stroke:none;stroke-width:2.30447173;stroke-linecap:butt;stroke-linejoin:miter;stroke-miterlimit:4;stroke-dasharray:none;stroke-opacity:1" />
          </g>
        </g>
      </g>
    </g>
  </g>
  <rect
     ry="0"
     rx="0"
     y="24.449656"
     x="18.445955"
     height="12.131193"
     width="17.108093"
     id="rect4344"
     style="opacity:1;fill:#5d5d5d;fill-opacity:1;fill-rule:nonzero;stroke:none;stroke-width:1;stroke-linecap:butt;stroke-linejoin:miter;stroke-miterlimit:4;stroke-dasharray:none;stroke-opacity:1" />
  <g
     id="g5599"
     transform="matrix(0.38423045,0,0,0.38423045,29.312267,31.125723)"
     inkscape:label="Gear12"
     style="stroke:#000000;fill:#ffffff;fill-opacity:1;stroke-opacity:1">
    <path
       style="fill:#ffffff;stroke:none;stroke-width:0.24953109"
       d="m -18.080314,-14.862358 -0.832411,0.0843 -0.388303,1.242847 -0.0027,0.469346 0.158784,0.681985 -1.369279,0.42985 -0.286504,-0.642112 -0.287304,-0.378594 -1.069792,-0.784514 -0.72473,0.404029 0.168213,1.28766 0.195726,0.429841 0.432315,0.560484 -1.070188,0.931098 -0.531748,-0.473907 -0.421717,-0.233153 -1.307957,-0.296562 -0.491667,0.654266 0.695643,1.1103331 0.360007,0.315555 0.630794,0.342121 -0.585602,1.270953 -0.685423,-0.224038 -0.483417,-0.04706 -1.319761,0.243022 -0.17371,0.7909634 1.102821,0.7408517 0.461788,0.1469543 0.720411,0.064595 0,1.3913128 -0.720411,0.064958 -0.461788,0.1469544 -1.102821,0.7404736 0.17371,0.7909641 1.319761,0.2434175 0.483417,-0.047507 0.685423,-0.2240381 0.585602,1.2713307 -0.630794,0.342131 -0.360007,0.31556264 -0.695643,1.109946 0.491667,0.65426636 1.307957,-0.29619296 0.421717,-0.2331519 0.531748,-0.4738981 1.070188,0.9307109 -0.432315,0.56086136 -0.195726,0.4294724 -0.168213,1.2876599 0.72473,0.4043976 1.069792,-0.7848915 0.287304,-0.3785861 0.286504,-0.6421204 1.369279,0.4302372 -0.158784,0.681985 0.0027,0.4693457 0.388303,1.2424691 0.832411,0.084661 0.646908,-1.1372872 0.102977,-0.4590899 -0.009,-0.6990792 1.432149,-0.1454334 0.141889,0.6857911 0.199639,0.4279513 0.877622,0.9823531 0.795857,-0.2498592 0.112406,-1.2933553 -0.09904,-0.4594759 -0.30223,-0.635274 1.247039,-0.6956706 0.41818,0.5707401 0.362356,0.3125135 1.215614,0.5528818 0.622138,-0.5411138 -0.442139,-1.22576176 -0.28376,-0.3808623 -0.543551,-0.4617529 0.846564,-1.12551044 0.622157,0.35694024 0.4625796,0.143166 1.342936,0.027349 0.340755,-0.73895274 -0.919672,-0.945907 -0.419738,-0.2365711 -0.6909276,-0.2080876 0.2994766,-1.3609393 0.71845,0.081602 0.483012,-0.050925 1.238402,-0.5031465 0,-0.8084356 -1.238402,-0.5031465 -0.483012,-0.050925 -0.71845,0.081241 -0.2994766,-1.3609481 0.6909276,-0.2077092 0.419738,-0.236563 0.919672,-0.945907 -0.340755,-0.738944 -1.342936,0.02735 -0.4625796,0.143158 -0.622157,0.35693 -0.846564,-1.1258883 0.543551,-0.461365 0.28376,-0.380872 0.442139,-1.225753 -0.622138,-0.541122 -1.215614,0.552512 -0.362356,0.312891 -0.41818,0.570353 -1.247039,-0.695669 0.30223,-0.634896 0.09904,-0.459845 -0.112406,-1.293355 -0.795857,-0.249878 -0.877622,0.982749 -0.199639,0.42796 -0.141889,0.685405 -1.432149,-0.145443 0.009,-0.699079 -0.102977,-0.458712 -0.646908,-1.137287 z m 0.646908,4.9562091 a 5.0306372,4.8605184 0 0 1 5.030631,4.8605116 5.0306372,4.8605184 0 0 1 -5.030631,4.86051954 5.0306372,4.8605184 0 0 1 -5.030632,-4.86051954 5.0306372,4.8605184 0 0 1 5.030632,-4.8605116 z"
       id="path5079"
       inkscape:connector-curvature="0"
       inkscape:export-xdpi="41.042011"
       inkscape:export-ydpi="41.042011" />
    <path
       inkscape:connector-curvature="0"
       id="path5099"
       d="m -1.5994374,-9.9186449 -0.8979185,0.332748 -0.048402,1.49096 0.1419973,0.521555 0.3861434,0.7112878 -1.3874076,0.8705224 -0.515644,-0.6303524 -0.4353821,-0.3376325 -1.4287934,-0.5633083 -0.679997,0.6566504 0.58303,1.380795 0.349535,0.420826 0.652314,0.4978566 -0.901166,1.3408756 -0.736039,-0.3731784 -0.539818,-0.1375883 -1.542935,0.046693 -0.344317,0.8674103 1.11385,1.0324471 0.496688,0.2467826 0.805376,0.1984701 -0.258731,1.57884194 -0.829685,-0.051642 -0.551019,0.086639 -1.389945,0.6489313 0.05074,0.92779636 1.452014,0.5053607 0.557749,0.0305 0.819439,-0.135321 0.428239,1.5441948 -0.779556,0.2790721 -0.467294,0.2957981 -0.996064,1.1386994 0.436246,0.8279584 1.539679,-0.1090678 0.521896,-0.1916325 0.691774,-0.445576 1.041237,1.2427481 -0.594761,0.5609607 -0.302437,0.4536725 -0.430443,1.4317715 0.747067,0.5848827 1.3604987,-0.7045587 0.3962833,-0.3799353 0.4443072,-0.6787464 1.4742363,0.725467 -0.3071872,0.7466906 -0.084931,0.5328983 0.2096352,1.477458 0.92883047,0.240593 0.9457369,-1.178511 0.2023382,-0.502724 0.1203409,-0.7949945 1.65213903,0.08403 0.03374,0.8025425 0.1469455,0.520268 0.8134015,1.267399 0.949929,-0.145191 L 4.8119809,10.424332 4.7849895,9.8852245 4.560168,9.1118318 6.1049028,8.5389146 6.4734572,9.2592803 6.8267712,9.6768854 8.1031759,10.514993 8.9095521,10.009021 8.6362197,8.5412803 8.3848846,8.0597716 7.8539019,7.4415282 9.0238381,6.3111235 9.6636283,6.8244187 10.161989,7.0671438 11.681335,7.3314795 12.205274,6.5521567 11.337261,5.3187747 10.9051,4.9775884 l -0.745378,-0.356301 0.593151,-1.492409 0.800347,0.21739 0.55747,0.025906 1.498914,-0.3555272 0.150733,-0.9180434 -1.311844,-0.785575 -0.538675,-0.141961 -0.830882,-0.032386 -0.08655,-1.59651156 0.822507,-0.1158248 0.520439,-0.195258 1.21959,-0.91424784 -0.248843,-0.8972696 -1.529333,-0.2025905 -0.551738,0.082321 -0.772368,0.2966162 -0.7512791,-1.4244294 0.7029041,-0.4290491 0.393035,-0.3831651 0.729578,-1.3140663 -0.605648,-0.7222365 -1.482063,0.4162099 -0.4693368,0.2918034 -0.5806543,0.5749145 -1.2861126,-1.006339 0.4612671,-0.6682381 0.1977043,-0.5042539 0.1134413,-1.487461 -0.8570546,-0.421816 -1.1791135,0.962507 -0.3058555,0.451379 -0.288573,0.7531766 -1.5981758,-0.4137906 0.140008,-0.791503 -0.031669,-0.53881 -0.522841,-1.4031521 -0.9602028,-0.04858 -0.6715493,1.3428821 -0.089878,0.532342 0.05344,0.801472 -1.63427093,0.250094 -0.2055236,-0.778387 -0.2554733,-0.479512 -1.06803887,-1.076369 z m 2.24349077,5.3148677 A 5.7802962,5.5848266 0 0 1 7.7234397,-0.65471576 5.7802962,5.5848266 0 0 1 3.6361595,6.1852742 5.7802962,5.5848266 0 0 1 -3.4432267,2.236204 5.7802962,5.5848266 0 0 1 0.64405337,-4.6037772 Z"
       style="fill:#ffffff;stroke:none;stroke-width:0.24953109"
       inkscape:export-xdpi="41.042011"
       inkscape:export-ydpi="41.042011" />
  </g>
</svg>
